<svg width="32" height="32" viewBox="0 0 32 32" fill="none" xmlns="http://www.w3.org/2000/svg">
<path d="M0 8C0 3.58172 3.58172 0 8 0H24C28.4183 0 32 3.58172 32 8V24C32 28.4183 28.4183 32 24 32H8C3.58172 32 0 28.4183 0 24V8Z" fill="#18181B"/>
<path d="M10.5277 24C10.3219 23.4747 10.2017 22.9248 10.2017 22.3673C10.2017 19.6926 13.0844 18.2261 16 16.6888M21.4723 24C21.6781 23.4747 21.7983 22.9248 21.7983 22.3673C21.7983 19.6926 18.9156 18.2261 16 16.6888M16 16.6888C13.0172 15.116 10 13.1312 10 10.379C10 9.72595 10.1513 8 12.1681 8C13.7815 8 15.395 9.11953 16 9.6793C16.605 9.11953 18.2185 8 19.8319 8C21.8487 8 22 9.72595 22 10.379C22 13.1312 18.9828 15.116 16 16.6888ZM14.5 20.543H17.5M13.5 23.379H18.5" stroke="white" stroke-width="1.5" stroke-linecap="round" stroke-linejoin="round"/>
</svg>
